<svg xmlns="http://www.w3.org/2000/svg" viewBox="0 0 314 649" role="img" aria-label="Hydra body map silhouette">
  <defs>
    <style>
      .base { fill: #c9ccd2; }
      .line { stroke: #eef2f6; stroke-width: 2; fill: none; stroke-linecap: round; stroke-linejoin: round; opacity: 0.9; }
      .sub { stroke: #f6f8fb; stroke-width: 1.2; fill: none; stroke-linecap: round; stroke-linejoin: round; opacity: 0.72; }
    </style>
  </defs>

  <ellipse class="base" cx="157" cy="62" rx="31" ry="41" />
  <path class="base" d="M143 97 L171 97 L169 118 L145 118 Z" />

  <path class="base" d="M92 133 C110 111 132 102 157 102 C182 102 204 111 222 133 C236 150 242 183 238 219 C232 267 215 307 191 338 C181 350 170 357 157 360 C144 357 133 350 123 338 C99 307 82 267 76 219 C72 183 78 150 92 133 Z" />

  <path class="base" d="M89 142 C70 153 57 176 54 206 C51 234 55 262 66 286 C73 300 84 305 95 300 C106 295 113 282 116 259 C120 229 118 192 111 161 C108 149 99 140 89 142 Z" />
  <path class="base" d="M225 142 C244 153 257 176 260 206 C263 234 259 262 248 286 C241 300 230 305 219 300 C208 295 201 282 198 259 C194 229 196 192 203 161 C206 149 215 140 225 142 Z" />

  <path class="base" d="M83 282 C74 296 70 318 73 338 C76 355 86 365 98 362 C110 359 117 347 117 330 C117 312 110 295 98 281 C94 276 86 277 83 282 Z" />
  <path class="base" d="M231 282 C240 296 244 318 241 338 C238 355 228 365 216 362 C204 359 197 347 197 330 C197 312 204 295 216 281 C220 276 228 277 231 282 Z" />
  <ellipse class="base" cx="96" cy="379" rx="14" ry="12" />
  <ellipse class="base" cx="218" cy="379" rx="14" ry="12" />

  <path class="base" d="M128 334 C136 324 146 318 157 318 C168 318 178 324 186 334 C191 341 191 353 186 364 C179 378 169 390 157 398 C145 390 135 378 128 364 C123 353 123 341 128 334 Z" />

  <path class="base" d="M133 390 C121 414 112 450 108 486 C105 515 114 536 129 542 C145 548 156 534 159 512 C163 471 161 429 150 393 C147 385 137 383 133 390 Z" />
  <path class="base" d="M181 390 C193 414 202 450 206 486 C209 515 200 536 185 542 C169 548 158 534 155 512 C151 471 153 429 164 393 C167 385 177 383 181 390 Z" />

  <path class="base" d="M131 535 C121 550 117 570 121 588 C124 603 134 611 145 608 C156 605 162 593 163 579 C164 560 158 544 148 533 C143 527 135 528 131 535 Z" />
  <path class="base" d="M183 535 C193 550 197 570 193 588 C190 603 180 611 169 608 C158 605 152 593 151 579 C150 560 156 544 166 533 C171 527 179 528 183 535 Z" />

  <ellipse class="base" cx="145" cy="618" rx="16" ry="8" />
  <ellipse class="base" cx="169" cy="618" rx="16" ry="8" />

  <path class="line" d="M108 158 C124 146 140 142 157 142 C174 142 190 146 206 158" />
  <path class="line" d="M102 187 C120 175 138 170 157 170 C176 170 194 175 212 187" />
  <path class="line" d="M101 216 C120 205 138 200 157 200 C176 200 194 205 213 216" />
  <path class="line" d="M105 245 C123 235 140 230 157 230 C174 230 191 235 209 245" />
  <path class="line" d="M113 273 C128 265 143 260 157 260 C171 260 186 265 201 273" />
  <path class="line" d="M122 300 C133 292 145 288 157 288 C169 288 181 292 192 300" />

  <path class="sub" d="M157 118 L157 362" />
  <path class="sub" d="M146 166 L146 352" />
  <path class="sub" d="M168 166 L168 352" />

  <path class="sub" d="M103 143 C94 169 91 198 93 229 C95 256 100 281 108 301" />
  <path class="sub" d="M211 143 C220 169 223 198 221 229 C219 256 214 281 206 301" />

  <path class="sub" d="M136 393 C126 424 122 460 123 497 C124 512 127 527 132 538" />
  <path class="sub" d="M178 393 C188 424 192 460 191 497 C190 512 187 527 182 538" />

  <path class="sub" d="M157 159 C146 149 131 148 119 157" />
  <path class="sub" d="M157 159 C168 149 183 148 195 157" />
  <path class="sub" d="M126 241 C135 237 144 239 151 245" />
  <path class="sub" d="M188 241 C179 237 170 239 163 245" />
</svg>
